PathFileType	4	(X/Y/Z)	C:/Users/beibeiliu/ov580/test_trc/User2\sequence.22_training_dense_right.trc
DataRate	CameraRate	NumFrames	NumMarkers	Units	OrigDataRate	OrigDataStartFrame	OrigNumFrames
120	120	24	19	mm	120	1	83
Frame#	Time	ThumbCMC			ThumbMCP			ThumbIP			ThumbTip			IndexMCP			IndexPIP			IndexTip			MiddleMCP			MiddlePIP			MiddleTip			RingMCP			RingPIP			RingTip			PinkyMCP			PinkyPIP			PinkyTip			BackHand1			BackHand2			BackHand3	
		X0	Y0	Z0	X1	Y1	Z1	X2	Y2	Z2	X3	Y3	Z3	X4	Y4	Z4	X5	Y5	Z5	X6	Y6	Z6	X7	Y7	Z7	X8	Y8	Z8	X9	Y9	Z9	X10	Y10	Z10	X11	Y11	Z11	X12	Y12	Z12	X13	Y13	Z13	X14	Y14	Z14	X15	Y15	Z15	X16	Y16	Z16	X17	Y17	Z17	X18	Y18	Z18	
0	0	83.4891	31.2077	-19.5075	63.2397	46.5088	-44.5686	56.6712	58.2798	-77.7148	51.5386	63.4339	-100.486	101.866	45.6365	-99.8139	94.3125	20.5655	-120.081	85.891	-2.7434	-131.025	124.917	33.3103	-103.001	112.078	10.8951	-122.818	104.299	-18.7443	-139.213	140.491	20.0875	-102.436	131.447	1.50909	-121.388	121.424	-19.9449	-140.801	156.566	9.29457	-92.7881	147.125	-8.84092	-112.268	136.849	-24.9125	-127.556	150.762	38.7945	-40.6351	146.57	31.8825	-4.74892	116.263	48.5573	-20.7155	
1	0.00833333	77.0326	28.4492	-24.6722	60.9305	32.6346	-45.8489	50.1269	41.0458	-81.5276	36.2419	43.1549	-100.241	93.1756	22.8311	-101.101	80.1832	-5.95178	-115.281	72.5551	-37.2653	-106.702	111.917	10.6528	-102.377	94.9694	-22.4021	-115.606	81.1413	-54.1608	-112.253	126.54	-5.53346	-102.215	120.649	-29.509	-110.842	97.702	-54.0383	-119.131	145.096	-15.2833	-88.3183	128.899	-39.6969	-102.341	104.378	-54.0082	-104.918	143.61	24.809	-45.0583	141.723	25.275	-9.00272	111.654	43.0553	-28.833	
2	0.0166667	75.2696	31.6424	-19.3916	59.9978	33.5196	-47.1045	44.399	38.2441	-79.4127	32.2789	38.4542	-97.8132	81.8984	5.9942	-98.6338	62.5037	-18.8261	-102.579	53.2047	-44.158	-80.783	94.6909	-13.0706	-99.8684	72.6034	-40.0593	-99.1646	53.6001	-65.5176	-79.086	111.406	-28.3377	-94.6304	93.7892	-48.2274	-97.5198	68.8244	-70.1562	-90.4642	125.323	-37.8482	-83.4775	103.665	-58.3376	-84.2352	78.2589	-66.2658	-78.1143	139.326	9.67651	-50.2175	144.227	17.0627	-16.7193	114.551	36.5975	-33.1956	
3	0.025	81.6585	43.9995	-22.2429	62.9582	51.1597	-42.7544	46.3531	51.1162	-77.2286	29.421	54.7852	-93.1073	65.3547	5.20715	-90.7834	37.4613	-17.4328	-83.1873	27.292	-32.5817	-56.6747	75.7924	-21.1699	-88.3745	44.9547	-40.3461	-77.8097	24.745	-52.0147	-52.2725	81.6112	-36.9872	-84.4742	57.7292	-53.5651	-78.1392	31.5614	-60.8229	-63.2328	96.1539	-47.5344	-71.3544	70.7721	-58.753	-65.2962	41.6738	-59.6929	-49.8446	129.129	-0.536182	-52.9851	140.303	7.8996	-18.3967	113.271	33.67	-41.6151	
4	0.0333333	88.7841	52.7611	-24.381	71.4593	62.6956	-42.8668	50.7099	66.6852	-73.1126	33.0923	70.9763	-89.8828	46.5536	8.838	-80.7831	18.9624	2.25668	-70.7284	3.55742	-7.71775	-42.6725	52.7927	-10.1847	-77.3776	17.7604	-19.6366	-60.0872	-3.90593	-22.7576	-37.0416	56.6168	-29.3753	-68.9523	24.97	-35.1313	-58.4398	-0.956223	-36.2169	-40.9966	66.4977	-45.0155	-55.456	34.2416	-45.1226	-45.4098	12.4176	-38.3828	-29.2542	114.044	-9.68402	-47.8164	134.195	-3.61143	-20.3384	114.156	24.9156	-39.5999	
5	0.0416667	94.4186	53.1812	-26.4766	79.848	64.991	-44.4743	60.1058	73.9829	-69.4974	43.785	81.8048	-87.0859	37.0579	25.4396	-74.1788	8.27949	22.1224	-60.5863	-14.0077	29.1908	-37.2417	35.4573	0.383125	-67.1135	3.82026	3.47558	-51.2667	-19.8206	11.5226	-30.3986	30.2556	-14.0803	-57.5055	5.80244	-13.4995	-45.3569	-16.949	-0.90683	-30.4944	35.3478	-32.2111	-42.213	13.9644	-21.9758	-33.7666	-11.8801	-11.0473	-18.9166	93.8535	-19.4478	-43.9362	117.354	-11.3367	-20.3755	106.345	17.7488	-42.6168	
6	0.05	101.922	49.186	-29.0094	94.1301	66.5274	-51.2871	75.8285	78.0001	-81.299	63.3202	89.6344	-95.8573	37.1299	39.1494	-74.3579	10.433	53.6055	-64.3173	-10.3356	59.6785	-42.5151	26.9197	20.9493	-65.4285	0.349616	35.8586	-50.7028	-22.2232	51.7896	-31.2831	15.9816	3.87924	-50.8324	-4.88054	17.026	-40.5036	-23.722	35.8971	-28.5391	20.3627	-9.65777	-36.2961	-2.51033	7.15338	-25.2316	-21.5512	26.7529	-18.0181	80.0118	-15.8611	-38.7246	104.485	-14.2867	-15.7183	101.911	13.9757	-42.3944	
7	0.0583333	115.934	44.2543	-32.3798	109.278	57.8018	-59.6348	96.4228	69.8045	-90.075	88.0928	81.6554	-110.293	48.2915	50.7424	-82.2546	25.4227	72.1079	-72.2696	9.16119	92.9021	-56.3616	29.6261	37.4332	-67.2648	10.7263	63.3907	-58.1115	-7.98805	89.2616	-40.5501	14.9331	27.1351	-51.291	-1.51224	47.9195	-45.1812	-11.0928	74.0429	-41.8373	15.0072	13.0685	-34.8622	0.801707	36.3724	-31.6496	-15.6533	60.3056	-28.1612	67.2802	-10.8815	-38.2905	94.6631	-15.7262	-10.2413	103.881	8.76855	-41.7807	
8	0.0666667	124.158	35.8562	-38.7258	126.757	47.8402	-64.8636	119.219	57.0774	-95.3244	115.951	68.0699	-118.515	65.4925	51.3879	-89.9277	52.0851	78.3112	-89.527	40.465	101.21	-78.5911	45.0008	44.2342	-76.6613	31.6424	78.6999	-73.4852	23.9381	104.336	-66.5046	30.8035	38.8781	-62.3745	19.4058	64.9077	-61.8507	10.5981	97.0011	-61.7843	20.7387	32.1655	-40.859	12.4992	59.3695	-45.7306	3.07727	82.5114	-44.494	65.418	-5.55937	-32.299	87.5267	-11.0328	-6.31734	105.704	3.85398	-37.4705	
9	0.075	143.786	30.0609	-37.3501	144.256	38.6714	-67.6411	143.079	43.3016	-99.6582	141.537	49.5609	-125.588	86.6695	40.6397	-99.3789	81.0247	66.9941	-105.478	68.2654	97.8355	-98.9047	67.5976	40.9492	-91.6141	56.0723	73.5403	-93.7006	49.9781	101.708	-93.0441	48.7556	37.0335	-74.4207	41.4735	63.1893	-80.9917	36.363	93.5008	-87.3258	34.792	34.2332	-52.8655	29.0317	59.6303	-64.2279	25.3601	83.7586	-73.7374	81.2968	-1.44318	-34.2932	94.0637	-7.13346	-6.46042	116.443	-2.20736	-34.9384	
10	0.0833333	154.857	21.8754	-40.3485	162.63	27.5873	-72.0494	164.343	31.2501	-105.218	162.473	34.9176	-129.499	113.226	20.3292	-107.479	100.892	50.6397	-119.102	85.504	73.8221	-117.275	87.9719	20.9628	-101.153	74.6992	48.26	-109.709	65.9368	80.1985	-113.203	66.8089	21.2096	-89.1768	59.1613	43.1377	-98.5648	53.578	71.1498	-108.827	53.2118	17.1677	-68.2978	47.9002	40.0241	-83.6824	43.0075	66.1744	-96.9996	99.14	-13.4974	-38.5187	111.096	-16.0049	-7.38328	134.055	-8.41643	-36.415	
11	0.0916667	168.942	23.1084	-39.3297	172.332	27.0336	-69.9413	178.363	29.0092	-108.71	180.551	33.6646	-133.372	137.275	8.64259	-115.363	117.584	29.1977	-128.009	97.4492	52.6034	-130.394	116.272	-1.57792	-109.748	93.8695	23.4458	-123.429	78.5713	50.6359	-130.895	91.6942	-6.73444	-101.581	77.6393	12.5501	-111.829	66.7428	40.1772	-125.424	78.8629	-11.237	-86.4126	64.1634	9.33024	-99.7078	54.6359	30.2238	-110.588	121.419	-32.0754	-49.9193	131.906	-27.8335	-15.0403	158.389	-14.2359	-44.5561	
12	0.1	173.712	30.9711	-40.535	177.711	38.4515	-69.6969	182.602	45.5292	-102.369	184.091	49.4014	-127.994	157.162	7.16159	-120.848	132.31	16.2418	-132.643	109.124	29.3971	-137.461	140.479	-10.3358	-118.783	110.544	0.919641	-130.65	86.3299	16.3939	-138.674	123.13	-26.5557	-110.868	99.9626	-16.042	-122.841	83.8358	3.13644	-137.583	109.695	-39.7886	-95.4092	93.4251	-24.8373	-109.162	76.9408	-10.3785	-123.035	158.801	-39.9115	-54.5827	158.986	-33.2534	-20.6534	181.326	-8.60698	-41.8328	
13	0.108333	165.037	34.8654	-40.7541	166.115	51.3239	-67.9588	169.606	58.6646	-100.162	167.793	65.545	-123.996	168.144	12.4213	-116.729	141.362	10.9245	-132.697	109.206	9.63806	-139.649	162.883	-13.0996	-115.66	132.96	-12.0727	-130.745	98.4874	-10.7762	-141.905	151.071	-33.8251	-112.911	131.773	-27.5573	-125.616	108.084	-25.9266	-139.059	147.157	-51.9823	-95.5916	123.28	-45.0672	-112.35	108.51	-39.7648	-126.241	186.307	-28.3735	-52.4651	183.217	-25.4621	-22.0622	191.132	9.21887	-39.9199	
14	0.116667	155.383	39.2797	-39.3256	149.565	56.8192	-64.7937	152.338	63.8769	-98.2019	152.369	70.217	-126.179	169.491	21.8652	-117.663	147.431	7.61142	-131.839	123.471	-3.08152	-140.279	175.02	-0.928283	-114.622	151.415	-15.7074	-129.117	120.031	-26.5162	-142.047	177.098	-28.5702	-110.476	154.704	-34.0661	-127.515	131.042	-37.7086	-143.51	178.991	-45.3161	-95.4366	158.637	-52.4225	-110.322	138.644	-53.8615	-130.492	203.495	-14.2692	-50.7691	196.116	-8.57921	-17.4946	190.158	23.1799	-40.4313	
15	0.125	147.309	38.676	-37.367	139.451	50.3837	-63.3252	138.438	63.1023	-95.1591	136.698	68.8322	-118.989	171.148	32.3732	-113.681	154.212	13.5256	-131.001	137.959	-5.23322	-142.833	184.326	10.0265	-113.569	163.418	-7.44301	-132.052	144.008	-26.1643	-145.201	194.276	-8.83034	-111.276	182.688	-25.4235	-125.486	160.412	-36.9133	-145.313	203.579	-29.73	-96.1135	187.007	-40.8368	-112.957	171.594	-47.7592	-133.169	213.579	4.31846	-45.4506	205.005	2.55284	-15.5078	185.066	33.1737	-32.5704	
16	0.133333	141.667	32.4524	-32.5879	129.618	49.431	-58.7051	130.806	64.3169	-90.4526	124.347	73.8749	-112.721	168.609	46.6963	-108.321	157.84	29.3271	-128.437	150.794	3.11225	-144.845	188.302	32.8358	-107.373	174.997	11.9191	-130.081	164.49	-13.7843	-147.722	203.852	15.8082	-104.39	192.672	-1.93376	-128.013	177.532	-15.7951	-149.843	217.323	-4.3566	-92.9201	202.041	-16.6496	-117.447	191.34	-25.6941	-138.453	211.434	24.3761	-39.4101	203.141	14.0224	-7.95213	177.58	39.5702	-25.2617	
17	0.141667	128	38.659	-26.3005	117.565	55.018	-50.5537	108.792	72.9544	-76.7777	105.068	83.1218	-97.775	155.89	60.8297	-101.698	149.117	44.7096	-124.27	143.333	22.382	-141.705	177.072	48.0973	-104.21	167.817	29.6152	-130.397	156.917	10.2708	-152.157	192.6	35.9719	-103.794	187.416	18.1321	-127.807	173.864	8.58002	-148.727	208.399	18.6328	-94.825	199.461	5.44685	-117.806	195.154	-4.35122	-138.305	201.064	38.5685	-35.2003	192.737	23.4241	-3.35049	161.533	48.5297	-19.6186	
18	0.15	110.221	28.273	-21.877	99.7494	46.146	-48.3042	89.5485	62.1042	-75.3297	84.862	73.567	-98.0736	133.074	54.1784	-99.3606	129.519	37.5323	-122.091	127.276	11.3513	-143.655	154.804	42.9938	-105.856	151.579	24.6863	-127.246	144.954	1.3732	-153.53	179.17	28.6753	-101.956	169.977	15.1934	-124.443	155.906	-1.55621	-148.32	193.175	15.6868	-92.6359	183.098	2.73538	-119.111	178.964	-6.99979	-136.922	181.618	36.8097	-38.078	175.788	20.1908	-7.40743	148.954	42.3052	-20.3839	
19	0.158333	97.8567	17.315	-26.559	87.8092	28.8068	-52.8628	77.2769	39.8466	-80.2863	68.6169	48.9692	-104.534	117.427	33.029	-101.792	111.361	12.3033	-124.751	106.457	-12.7441	-139.303	142.726	19.4651	-109.272	134.051	-1.91168	-129.894	126.319	-26.3411	-151.315	160.382	6.99206	-108.563	149.596	-9.81194	-126.506	135.112	-34.5203	-143.027	176.377	-1.55817	-93.6748	168.908	-18.1083	-116.055	158.896	-28.5042	-139.445	167.277	25.9717	-44.5082	165.726	14.2531	-11.8792	135.307	30.6666	-23.2692	
20	0.166667	89.3417	8.38504	-30.2733	73.3229	14.758	-52.627	58.6272	24.8028	-85.474	56.6891	26.8641	-109.4	108.549	11.957	-107.391	97.1266	-11.0964	-124.42	92.9443	-41.1001	-130.525	127.389	3.60534	-108.849	121.129	-23.5806	-126.475	107.856	-55.9122	-141.18	146.478	-11.8918	-108.64	134.109	-36.1456	-122.213	121.215	-62.3531	-125.123	166.94	-23.2347	-95.0111	157.187	-41.3696	-110.479	146.267	-58.9134	-128.769	160.351	13.4754	-44.2651	156.668	9.13246	-11.7025	120.109	26.1618	-33.2374	
21	0.175	78.674	7.33898	-30.7153	64.9711	7.62937	-57.3451	47.1793	12.9336	-87.5332	39.321	10.3023	-107.865	94.065	-5.98219	-109.92	83.8825	-29.0308	-119.577	76.7325	-65.4064	-110.992	115.574	-16.5503	-109.817	100.774	-47.0133	-120.549	90.0107	-79.8235	-119.776	134.782	-32.9913	-105.748	120.676	-55.8029	-110.278	99.5129	-80.8383	-100.328	151.616	-41.6632	-93.3152	136.938	-61.1593	-103.759	121.46	-80.4076	-113.708	146.076	7.48955	-47.9679	146.46	5.87857	-15.1985	116.173	20.5883	-33.7517	
22	0.183333	75.5805	7.99061	-29.3316	58.778	3.98492	-51.6977	41.9224	5.63972	-86.0765	28.9269	1.70609	-105.536	80.4104	-19.7732	-105.41	66.1997	-48.0696	-104.556	58.4042	-71.7366	-82.9086	104.273	-33.9283	-101.718	84.0077	-65.262	-103.882	61.9941	-92.6518	-86.8648	119.143	-50.9673	-95.0566	96.0087	-74.3697	-93.9258	73.6393	-87.6561	-69.6796	129.322	-59.4901	-85.631	113.258	-81.7205	-86.9207	87.5371	-95.3732	-90.0692	140.38	-6.12564	-55.0025	141.028	-0.113488	-16.0613	112.584	14.5636	-40.363	
23	0.191667	76.1984	17.2258	-25.4901	56.813	13.3054	-49.1816	39.4265	10.2039	-76.5398	20.2223	10.7704	-96.1497	70.4353	-25.3668	-94.3194	42.5406	-46.9223	-88.0583	33.9276	-62.1761	-60.4166	82.2456	-42.8306	-91.8773	54.8996	-68.3786	-83.5966	31.2577	-81.848	-61.1404	91.4472	-64.3159	-81.8765	64.0202	-81.6827	-70.6066	40.8399	-74.6607	-44.032	102.14	-74.2962	-71.1299	80.214	-85.1484	-68.3887	52.1893	-94.8258	-57.8481	132.019	-25.1499	-52.8405	141.498	-10.2247	-17.8209	114.487	10.011	-38.2372	
